<svg width="1280" height="720" xmlns="http://www.w3.org/2000/svg" xmlns:xlink="http://www.w3.org/1999/xlink" overflow="hidden"><defs><clipPath id="clip0"><rect x="0" y="0" width="1280" height="720"/></clipPath></defs><g clip-path="url(#clip0)"><rect x="0" y="0" width="1280" height="720" fill="#FFFFFF"/><path d="M473.5 439C473.5 397.303 507.303 363.5 549 363.5 574.167 363.5 599.333 363.5 624.5 363.5 624.5 388.667 624.5 413.833 624.5 439 624.5 480.698 590.698 514.5 549 514.5 507.303 514.5 473.5 480.698 473.5 439Z" stroke="#000000" stroke-width="18.6667" stroke-miterlimit="8" fill="#FFFFFF" fill-rule="evenodd"/><text font-family="Segoe UI Black,Segoe UI Black_MSFontService,sans-serif" font-weight="900" font-size="107" transform="translate(518.79 474)">E</text><path d="M549 209.5C590.698 209.5 624.5 243.303 624.5 285 624.5 310.167 624.5 335.333 624.5 360.5 599.333 360.5 574.167 360.5 549 360.5 507.303 360.5 473.5 326.698 473.5 285 473.5 243.303 507.303 209.5 549 209.5Z" stroke="#000000" stroke-width="18.6667" stroke-miterlimit="8" fill="#FFFFFF" fill-rule="evenodd"/><text font-family="Segoe UI Black,Segoe UI Black_MSFontService,sans-serif" font-weight="900" font-size="107" transform="translate(516.986 324)">P</text><path d="M700 514.5C658.303 514.5 624.5 480.698 624.5 439 624.5 413.833 624.5 388.667 624.5 363.5 649.667 363.5 674.833 363.5 700 363.5 741.698 363.5 775.5 397.303 775.5 439 775.5 480.698 741.698 514.5 700 514.5Z" stroke="#000000" stroke-width="18.6667" stroke-miterlimit="8" fill="#FFFFFF" fill-rule="evenodd"/><text font-family="Segoe UI Black,Segoe UI Black_MSFontService,sans-serif" font-weight="900" font-size="107" transform="translate(655.608 478)">A</text><path d="M0 75.5C-1.92243e-14 33.8025 33.8025 0 75.5 0 100.667 0 125.833 0 151 0 151 25.1667 151 50.3333 151 75.5 151 117.197 117.197 151 75.5 151 33.8025 151 9.61216e-15 117.197 0 75.5Z" stroke="#000000" stroke-width="18.6667" stroke-miterlimit="8" fill="#FFFFFF" fill-rule="evenodd" transform="matrix(6.12323e-17 1 1 -6.12323e-17 624.5 209.5)"/><text font-family="Segoe UI Black,Segoe UI Black_MSFontService,sans-serif" font-weight="900" font-size="107" transform="translate(665.108 324)">S</text></g></svg>