<svg width="1280" height="720" xmlns="http://www.w3.org/2000/svg" xmlns:xlink="http://www.w3.org/1999/xlink" overflow="hidden"><defs><clipPath id="clip0"><rect x="0" y="0" width="1280" height="720"/></clipPath></defs><g clip-path="url(#clip0)"><rect x="0" y="0" width="1280" height="720" fill="#FFFFFF"/><path d="M629.5 348C629.5 306.303 663.526 272.5 705.5 272.5 730.833 272.5 756.167 272.5 781.5 272.5 781.5 297.667 781.5 322.833 781.5 348 781.5 389.698 747.474 423.5 705.5 423.5 663.526 423.5 629.5 389.698 629.5 348Z" stroke="#000000" stroke-width="18.6667" stroke-miterlimit="8" fill="#FFFFFF" fill-rule="evenodd"/><text font-family="Segoe UI Black,Segoe UI Black_MSFontService,sans-serif" font-weight="900" font-size="107" transform="translate(675.553 383)">E</text><path d="M373.5 272.5C415.474 272.5 449.5 306.303 449.5 348 449.5 373.167 449.5 398.333 449.5 423.5 424.167 423.5 398.833 423.5 373.5 423.5 331.526 423.5 297.5 389.698 297.5 348 297.5 306.303 331.526 272.5 373.5 272.5Z" stroke="#000000" stroke-width="18.6667" stroke-miterlimit="8" fill="#FFFFFF" fill-rule="evenodd"/><text font-family="Segoe UI Black,Segoe UI Black_MSFontService,sans-serif" font-weight="900" font-size="107" transform="translate(341.75 387)">P</text><path d="M857 423.5C815.303 423.5 781.5 389.698 781.5 348 781.5 322.833 781.5 297.667 781.5 272.5 806.667 272.5 831.833 272.5 857 272.5 898.698 272.5 932.5 306.303 932.5 348 932.5 389.698 898.698 423.5 857 423.5Z" stroke="#000000" stroke-width="18.6667" stroke-miterlimit="8" fill="#FFFFFF" fill-rule="evenodd"/><text font-family="Segoe UI Black,Segoe UI Black_MSFontService,sans-serif" font-weight="900" font-size="107" transform="translate(812.371 387)">A</text><path d="M0 75.5C-1.92243e-14 33.8025 33.8025 0 75.5 0 100.667 0 125.833 0 151 0 151 25.1667 151 50.3333 151 75.5 151 117.197 117.197 151 75.5 151 33.8025 151 9.61216e-15 117.197 0 75.5Z" stroke="#000000" stroke-width="18.6667" stroke-miterlimit="8" fill="#FFFFFF" fill-rule="evenodd" transform="matrix(6.12323e-17 1 1 -6.12323e-17 449.5 272.5)"/><text font-family="Segoe UI Black,Segoe UI Black_MSFontService,sans-serif" font-weight="900" font-size="107" transform="translate(489.872 387)">S</text></g></svg>