<svg width="1280" height="720" xmlns="http://www.w3.org/2000/svg" xmlns:xlink="http://www.w3.org/1999/xlink" overflow="hidden"><defs><filter id="fx0" x="-10%" y="-10%" width="120%" height="120%" filterUnits="userSpaceOnUse" primitiveUnits="userSpaceOnUse"><feComponentTransfer color-interpolation-filters="sRGB"><feFuncR type="discrete" tableValues="0 0"/><feFuncG type="discrete" tableValues="0 0"/><feFuncB type="discrete" tableValues="0 0"/><feFuncA type="linear" slope="0.4" intercept="0"/></feComponentTransfer><feGaussianBlur stdDeviation="1.77778 1.77778"/></filter><filter id="fx1" x="-10%" y="-10%" width="120%" height="120%" filterUnits="userSpaceOnUse" primitiveUnits="userSpaceOnUse"><feComponentTransfer color-interpolation-filters="sRGB"><feFuncR type="discrete" tableValues="0 0"/><feFuncG type="discrete" tableValues="0 0"/><feFuncB type="discrete" tableValues="0 0"/><feFuncA type="linear" slope="0.4" intercept="0"/></feComponentTransfer><feGaussianBlur stdDeviation="1.77778 1.77778"/></filter><filter id="fx2" x="-10%" y="-10%" width="120%" height="120%" filterUnits="userSpaceOnUse" primitiveUnits="userSpaceOnUse"><feComponentTransfer color-interpolation-filters="sRGB"><feFuncR type="discrete" tableValues="0 0"/><feFuncG type="discrete" tableValues="0 0"/><feFuncB type="discrete" tableValues="0 0"/><feFuncA type="linear" slope="0.4" intercept="0"/></feComponentTransfer><feGaussianBlur stdDeviation="1.77778 1.77778"/></filter><filter id="fx3" x="-10%" y="-10%" width="120%" height="120%" filterUnits="userSpaceOnUse" primitiveUnits="userSpaceOnUse"><feComponentTransfer color-interpolation-filters="sRGB"><feFuncR type="discrete" tableValues="0 0"/><feFuncG type="discrete" tableValues="0 0"/><feFuncB type="discrete" tableValues="0 0"/><feFuncA type="linear" slope="0.4" intercept="0"/></feComponentTransfer><feGaussianBlur stdDeviation="1.77778 1.77778"/></filter><filter id="fx4" x="-10%" y="-10%" width="120%" height="120%" filterUnits="userSpaceOnUse" primitiveUnits="userSpaceOnUse"><feComponentTransfer color-interpolation-filters="sRGB"><feFuncR type="discrete" tableValues="0 0"/><feFuncG type="discrete" tableValues="0 0"/><feFuncB type="discrete" tableValues="0 0"/><feFuncA type="linear" slope="0.4" intercept="0"/></feComponentTransfer><feGaussianBlur stdDeviation="1.77778 1.77778"/></filter><filter id="fx5" x="-10%" y="-10%" width="120%" height="120%" filterUnits="userSpaceOnUse" primitiveUnits="userSpaceOnUse"><feComponentTransfer color-interpolation-filters="sRGB"><feFuncR type="discrete" tableValues="0 0"/><feFuncG type="discrete" tableValues="0 0"/><feFuncB type="discrete" tableValues="0 0"/><feFuncA type="linear" slope="0.4" intercept="0"/></feComponentTransfer><feGaussianBlur stdDeviation="1.77778 1.77778"/></filter><clipPath id="clip6"><rect x="0" y="0" width="1280" height="720"/></clipPath><clipPath id="clip7"><path d="M549 363.5C507.303 363.5 473.5 397.303 473.5 439 473.5 480.698 507.303 514.5 549 514.5 590.698 514.5 624.5 480.698 624.5 439 624.5 413.833 624.5 388.667 624.5 363.5 599.333 363.5 574.167 363.5 549 363.5ZM1.90735e-05 1.07288e-05 1280 1.07288e-05 1280 720 1.90735e-05 720Z" fill-rule="evenodd" clip-rule="evenodd"/></clipPath><clipPath id="clip8"><rect x="-2" y="-2" width="186" height="186"/></clipPath><clipPath id="clip9"><rect x="0" y="0" width="184" height="184"/></clipPath><clipPath id="clip10"><rect x="69" y="60" width="66" height="91"/></clipPath><clipPath id="clip11"><rect x="0" y="0" width="200" height="238"/></clipPath><clipPath id="clip12"><path d="M549 209.5C507.303 209.5 473.5 243.303 473.5 285 473.5 326.698 507.303 360.5 549 360.5 574.167 360.5 599.333 360.5 624.5 360.5 624.5 335.333 624.5 310.167 624.5 285 624.5 243.303 590.698 209.5 549 209.5ZM1.90735e-05 1.07288e-05 1280 1.07288e-05 1280 720 1.90735e-05 720Z" fill-rule="evenodd" clip-rule="evenodd"/></clipPath><clipPath id="clip13"><rect x="-2" y="-2" width="186" height="186"/></clipPath><clipPath id="clip14"><rect x="0" y="0" width="184" height="184"/></clipPath><clipPath id="clip15"><rect x="71" y="60" width="76" height="91"/></clipPath><clipPath id="clip16"><rect x="0" y="0" width="212" height="238"/></clipPath><clipPath id="clip17"><path d="M624.5 363.5C624.5 388.667 624.5 413.833 624.5 439 624.5 480.698 658.303 514.5 700 514.5 741.698 514.5 775.5 480.698 775.5 439 775.5 397.303 741.698 363.5 700 363.5 674.833 363.5 649.667 363.5 624.5 363.5ZM1.90735e-05 1.07288e-05 1280 1.07288e-05 1280 720 1.90735e-05 720Z" fill-rule="evenodd" clip-rule="evenodd"/></clipPath><clipPath id="clip18"><rect x="-2" y="-2" width="186" height="186"/></clipPath><clipPath id="clip19"><rect x="0" y="0" width="184" height="184"/></clipPath><clipPath id="clip20"><rect x="65" y="60" width="94" height="91"/></clipPath><clipPath id="clip21"><rect x="0" y="0" width="222" height="238"/></clipPath></defs><g clip-path="url(#clip6)"><rect x="0" y="0" width="1280" height="720" fill="#FFFFFF"/><g clip-path="url(#clip7)"><g clip-path="url(#clip8)" filter="url(#fx0)" transform="translate(460 350)"><g clip-path="url(#clip9)"><path d="M16.3285 91.8285C16.3285 50.131 50.131 16.3285 91.8285 16.3285 116.995 16.3285 142.162 16.3285 167.328 16.3285 167.328 41.4952 167.328 66.6618 167.328 91.8285 167.328 133.526 133.526 167.328 91.8285 167.328 50.131 167.328 16.3285 133.526 16.3285 91.8285Z" stroke="#000000" stroke-width="19" stroke-miterlimit="8" fill="#FFFFFF" fill-rule="evenodd"/></g></g><g clip-path="url(#clip10)" filter="url(#fx1)" transform="translate(451 334)"><g clip-path="url(#clip11)"><path d="M7.3667 0 7.3667-74.9209 54.0225-74.9209 54.0225-57.2617 29.937-57.2617 29.937-46.3423 52.5596-46.3423 52.5596-28.6831 29.937-28.6831 29.937-17.6592 55.7466-17.6592 55.7466 0Z" transform="translate(70.6185 143)"/></g></g></g><path d="M473.5 439C473.5 397.303 507.303 363.5 549 363.5 574.167 363.5 599.333 363.5 624.5 363.5 624.5 388.667 624.5 413.833 624.5 439 624.5 480.698 590.698 514.5 549 514.5 507.303 514.5 473.5 480.698 473.5 439Z" stroke="#000000" stroke-width="18.6667" stroke-miterlimit="8" fill="#FFFFFF" fill-rule="evenodd"/><text font-family="Segoe UI Black,Segoe UI Black_MSFontService,sans-serif" font-weight="900" font-size="107" transform="translate(518.79 474)">E</text><g clip-path="url(#clip12)"><g clip-path="url(#clip13)" filter="url(#fx2)" transform="translate(460 196)"><g clip-path="url(#clip14)"><path d="M91.8285 16.3285C133.526 16.3285 167.328 50.131 167.328 91.8285 167.328 116.995 167.328 142.162 167.328 167.328 142.162 167.328 116.995 167.328 91.8285 167.328 50.131 167.328 16.3285 133.526 16.3285 91.8285 16.3285 50.131 50.131 16.3285 91.8285 16.3285Z" stroke="#000000" stroke-width="19" stroke-miterlimit="8" fill="#FFFFFF" fill-rule="evenodd"/></g></g><g clip-path="url(#clip15)" filter="url(#fx3)" transform="translate(449 184)"><g clip-path="url(#clip16)"><path d="M68.5991-50.2085C68.5991-45.0884 67.3017-40.543 64.7068-36.5723 62.1119-32.6016 58.4111-29.5278 53.6045-27.3508 48.7979-25.1739 43.2075-24.0854 36.8335-24.0854L29.937-24.0854 29.937 0 7.3667 0 7.3667-74.9209 38.0874-74.9209C48.6411-74.9209 56.3648-72.9181 61.2585-68.9126 66.1523-64.9071 68.5991-58.6724 68.5991-50.2085ZM44.7227-49.4248C44.7227-52.4899 43.8345-54.8062 42.0581-56.3735 40.2817-57.9409 37.6694-58.7246 34.2212-58.7246L29.937-58.7246 29.937-40.2295 35.0049-40.2295C41.4834-40.2295 44.7227-43.2946 44.7227-49.4248Z" transform="translate(70.8148 143)"/></g></g></g><path d="M549 209.5C590.698 209.5 624.5 243.303 624.5 285 624.5 310.167 624.5 335.333 624.5 360.5 599.333 360.5 574.167 360.5 549 360.5 507.303 360.5 473.5 326.698 473.5 285 473.5 243.303 507.303 209.5 549 209.5Z" stroke="#000000" stroke-width="18.6667" stroke-miterlimit="8" fill="#FFFFFF" fill-rule="evenodd"/><text font-family="Segoe UI Black,Segoe UI Black_MSFontService,sans-serif" font-weight="900" font-size="107" transform="translate(516.986 324)">P</text><g clip-path="url(#clip17)"><g clip-path="url(#clip18)" filter="url(#fx4)" transform="translate(611 350)"><g clip-path="url(#clip19)"><path d="M91.8285 167.328C50.131 167.328 16.3285 133.526 16.3285 91.8285 16.3285 66.6618 16.3285 41.4952 16.3285 16.3285 41.4952 16.3285 66.6618 16.3285 91.8285 16.3285 133.526 16.3285 167.328 50.131 167.328 91.8285 167.328 133.526 133.526 167.328 91.8285 167.328Z" stroke="#000000" stroke-width="19" stroke-miterlimit="8" fill="#FFFFFF" fill-rule="evenodd"/></g></g><g clip-path="url(#clip20)" filter="url(#fx5)" transform="translate(587 338)"><g clip-path="url(#clip21)"><path d="M54.3359 0 51.0444-13.793 28.6831-13.793 25.1304 0 0.731445 0 26.541-74.9209 54.5449-74.9209 78.8394 0ZM40.125-58.6201 39.6025-58.6201C39.5329-57.7842 39.2891-56.4084 38.8711-54.4927 38.4531-52.577 36.3459-44.3569 32.5493-29.8325L46.8647-29.8325 41.6401-50.2085C40.9087-53.2039 40.4036-56.0078 40.125-58.6201Z" transform="translate(71.4368 143)"/></g></g></g><path d="M700 514.5C658.303 514.5 624.5 480.698 624.5 439 624.5 413.833 624.5 388.667 624.5 363.5 649.667 363.5 674.833 363.5 700 363.5 741.698 363.5 775.5 397.303 775.5 439 775.5 480.698 741.698 514.5 700 514.5Z" stroke="#000000" stroke-width="18.6667" stroke-miterlimit="8" fill="#FFFFFF" fill-rule="evenodd"/><text font-family="Segoe UI Black,Segoe UI Black_MSFontService,sans-serif" font-weight="900" font-size="107" transform="translate(655.608 478)">A</text><path d="M0 75.5C-1.92243e-14 33.8025 33.8025 0 75.5 0 100.667 0 125.833 0 151 0 151 25.1667 151 50.3333 151 75.5 151 117.197 117.197 151 75.5 151 33.8025 151 9.61216e-15 117.197 0 75.5Z" stroke="#000000" stroke-width="18.6667" stroke-miterlimit="8" fill="#FFFFFF" fill-rule="evenodd" transform="matrix(6.12323e-17 1 1 -6.12323e-17 624.5 209.5)"/><text font-family="Segoe UI Black,Segoe UI Black_MSFontService,sans-serif" font-weight="900" font-size="107" transform="translate(665.108 324)">S</text></g></svg>